<svg xmlns="http://www.w3.org/2000/svg" viewBox="0 0 238.5 434.2"><title>Recurso 1</title><g style="isolation:isolate"><g id="Capa_2" data-name="Capa 2"><g id="objets"><path d="M113.7,366.6l4.5-11.3,4.3,11.3c40.5.4,68.2,7,68.2,7L176,334.3H60.4L47.6,373.6A296.2,296.2,0,0,1,113.7,366.6Z" style="fill:#82939a"/><path d="M141,418c16.8-30.8,16.1-93.1,16.1-93.1l-19.7,1.8c13.7,29.4-3.5,74.2-9.2,87.6h0s-9.6,12.6,0,13.6c0,0,32.1,13.8,38.1.8S145.7,417.7,141,418Z" style="fill:#42414b"/><path d="M101.1,418c-16.8-30.8-16.1-93.1-16.1-93.1l19.7,1.8c-13.7,29.4,3.5,74.2,9.2,87.6h0s9.6,12.6,0,13.6c0,0-32.1,13.8-38.1.8S96.3,417.7,101.1,418Z" style="fill:#42414b"/><path d="M160.2,187.5c-5.7-8.9-12.4-16.6-20.1-22.5-16.8-12.7-39.4.1-39.4.1s-20.1,7.4-33.8,50.9C100.7,219.4,137.1,213.3,160.2,187.5Z" style="fill:#d03f3e"/><path d="M171.1,208.1a147.9,147.9,0,0,0-10.9-20.6c-23.1,25.8-59.5,31.9-93.3,28.5-7.5,23.6-13.1,57.9-12.6,107.4,0,0,8.6,8.9,26.4,18.6s44.6,10.4,81.1,2c10.7-2.5,15.6-6,28-11.6C183,277.7,186.7,243.8,171.1,208.1Z" style="fill:#d85144"/><path d="M100.4,176S67.6,273.3,78.3,376.5c0,0-30.8,4-44.2-8,0,0-4.9-128.8,50.2-192.4Z" style="fill:#fff"/><path d="M137.9,176s32.9,97.3,22.1,200.5c0,0,30.8,4,44.2-8,0,0,4.9-128.8-50.2-192.4Z" style="fill:#fff"/><path d="M100.4,178.1a33.3,33.3,0,0,0-22.1,26.8,30.1,30.1,0,0,0,6,22.8,52.2,52.2,0,0,0-11.1,26.8c-2.2,18.3,4.7,38.9,4.7,38.9Z" style="fill:#d2d9dc"/><path d="M137.9,178.1A33.3,33.3,0,0,1,160,204.9a30.1,30.1,0,0,1-6,22.8,52.2,52.2,0,0,1,11.1,26.8c2.2,18.3-4.7,38.9-4.7,38.9Z" style="fill:#d2d9dc"/><path d="M212.9,113.6S227.8,58.4,176,34.3,23.7,21.2,36.9,113.6c0,0-18.8-16.1-26.8,0s19.7,56.3,33,26.8c0,0,8,44.7,80.4,46.4s84-47.3,84-47.3,3.8,17.4,20.5,7.1C242.4,137.9,245.9,88.6,212.9,113.6Z" style="fill:#fdd0a2"/><path d="M84.3,150.9s52.7,9.8,81.3-2.7c0,0-8.8,26.9-38.9,27.8S84.3,150.9,84.3,150.9Z" style="fill:#fff"/><circle cx="168.9" cy="120" r="9.1" style="fill:#42414b"/><circle cx="78.3" cy="120" r="9.1" style="fill:#42414b"/><path d="M182.1,150c-4.7.5-8.4-9,6.3-14.7S204.5,147.8,182.1,150Z" style="fill:#f8ab94"/><path d="M69,150c4.7.5,8.4-9-6.3-14.7S46.7,147.8,69,150Z" style="fill:#f8ab94"/><path d="M70.3,54.2S130,92,188.6,77.1c0,0,0,31,24.3,36.5l12.1-6.5s7.8-28.5-9.5-55.8c0,0,9.5,14.9,15.5,11.3s-7.1-48.8-68.5-50c0,0,7.4-4.2-11.2-10.1s-57.4-1.2-73,18.5c0,0-17.9-15.5-26.4-10.7S66.6,23.3,66.6,23.3s-18.5-.6-20.3,4.1,13.1,6,13.1,6S13.2,51.1,23.8,106.8l13.1,6.8s2.3,16,8.9,15.4S44,98.9,44,98.9,60.9,83.4,70.3,54.2Z" style="fill:#5e351d"/><path d="M63.7,108.1s7.2-15.4,21.2-5L88,94.7S70.9,84,58.3,103.2Z" style="fill:#48250d"/><path d="M178.4,108.1s-7.2-15.4-21.2-5L154,94.7s17.1-10.7,29.7,8.5Z" style="fill:#48250d"/><rect x="21.8" y="202.8" width="96.5" height="140.37" rx="7.9" ry="7.9" style="fill:#5e351d"/><rect x="18.5" y="202.8" width="96.5" height="140.37" rx="7.9" ry="7.9" style="fill:#875e44"/><path d="M73.1,182.8H60.8a1.9,1.9,0,0,0-1.9,1.5,1.9,1.9,0,0,0-.1.5v21.6a1.9,1.9,0,0,0,1.9,1.9H73.1a1.9,1.9,0,0,0,1.9-1.9V184.7A1.9,1.9,0,0,0,73.1,182.8Zm-6.1,9.7a3.3,3.3,0,1,1,3.3-3.3A3.3,3.3,0,0,1,66.9,192.4Z" style="fill:#acd3db"/><path d="M81.5,197.5a2.4,2.4,0,0,1-2.4,2.4H54.8a2.4,2.4,0,0,1-2.4-2.4h0a2.4,2.4,0,0,1,2.4-2.4H79.1a2.4,2.4,0,0,1,2.4,2.4Z" style="fill:#d3dee4"/><rect x="10.9" y="232.6" width="113.4" height="80.18" transform="translate(-206.1 336.1) rotate(-89.1)" style="fill:#acd3db"/><polygon points="102.9 325 31 329.3 24.2 216.1 104.2 211.3 110.6 317.2 102.9 325" style="fill:#fff"/><polygon points="110.6 317.2 102.8 316.5 102.9 325 110.6 317.2" style="fill:#cce4e9"/><path d="M53,210.8c5.2-13.1,19.3-9.6,31-7.7v-2.3a2.6,2.6,0,0,0-2.6-2.6h-29a2.6,2.6,0,0,0-2.6,2.6v16.4a2.6,2.6,0,0,0,2,2.5A21.6,21.6,0,0,1,53,210.8Z" style="fill:#acd3db"/><path d="M53,210.8a21.6,21.6,0,0,0-1.2,8.9H81.4a2.6,2.6,0,0,0,2.6-2.6V203.1C72.3,201.2,58.2,197.8,53,210.8Z" style="fill:#d3dee4"/><path d="M2.1,259.3c-4.4,7.7-3.6,35.1,18.5,38.5s5.1-12.6,5.1-12.6S42,287.5,42,277.3,29.5,272,29.5,272s11.3-5.3,8.8-11.5-11.1-.2-11.1-.2,12.3-12.5,3.9-14.9S10.2,245.3,2.1,259.3Z" style="fill:#fdd0a2"/><path d="M205.1,220.3V201.9a1.5,1.5,0,0,1,1.5-1.5h2.1c1.2,0,2.1-1.3,2.1-2.8s-1-2.8-2.1-2.8H185.5c-1.2,0-2.1,1.3-2.1,2.8s1,2.8,2.1,2.8h2.7a1.5,1.5,0,0,1,1.5,1.5v18.4Z" style="fill:#a7dad0"/><path d="M189.7,220.4v82c0,3.3,3.4,6,7.7,6s7.7-2.7,7.7-6v-82Z" style="fill:#f2725c"/><path d="M208.6,191.9H185.5c-2.8,0-5.1,2.6-5.1,5.7s2.3,5.7,5.1,5.7h1.2v99c0,4.9,4.8,8.9,10.6,8.9s10.6-4,10.6-8.9v-99h.6c2.8,0,5.1-2.6,5.1-5.7S211.4,191.9,208.6,191.9Zm0,8.5h-2.1a1.5,1.5,0,0,0-1.5,1.5V302.4c0,3.3-3.5,6-7.7,6s-7.7-2.7-7.7-6V201.9a1.5,1.5,0,0,0-1.5-1.5h-2.7c-1.2,0-2.1-1.3-2.1-2.8s1-2.8,2.1-2.8h23.1c1.2,0,2.1,1.3,2.1,2.8S209.8,200.4,208.6,200.4Z" style="fill:#fff"/><path d="M202.2,300a2.4,2.4,0,0,1-2.4,2.4h0a2.4,2.4,0,0,1-2.4-2.4V205a2.4,2.4,0,0,1,2.4-2.4h0a2.4,2.4,0,0,1,2.4,2.4Z" style="fill:#fff;opacity:0.6000000000000001;mix-blend-mode:overlay"/><path d="M224,244.3c4.4,7.7,3.6,35.1-18.5,38.5s-5.1-12.6-5.1-12.6-16.4,2.4-16.4-7.9,12.5-5.3,12.5-5.3-11.3-5.3-8.8-11.5,11.1-2.7,11.1-2.7-12.3-9.9-3.9-12.4S215.9,230.2,224,244.3Z" style="fill:#fdd0a2"/></g></g></g></svg>