<?xml version="1.0" encoding="UTF-8"?>
<!DOCTYPE svg PUBLIC "-//W3C//DTD SVG 1.1//EN" "http://www.w3.org/Graphics/SVG/1.1/DTD/svg11.dtd">
<!-- Creator: CorelDRAW X7 -->
<svg xmlns="http://www.w3.org/2000/svg" xml:space="preserve" width="431.8mm" height="279.4mm" version="1.1" style="shape-rendering:geometricPrecision; text-rendering:geometricPrecision; image-rendering:optimizeQuality; fill-rule:evenodd; clip-rule:evenodd"
viewBox="0 0 43180 27940"
 xmlns:xlink="http://www.w3.org/1999/xlink">
 <defs>
  <style type="text/css">
   <![CDATA[
    .fil2 {fill:#FEFEFE}
    .fil1 {fill:#0778BE}
    .fil0 {fill:#E11171}
   ]]>
  </style>
     <clipPath id="id0">
      <path d="M13001 15991c5,2 9,4 9,4 1,62 0,93 0,93 -55,162 -82,243 -82,243 -10,38 -6,67 12,87 137,0 205,0 205,0 14,-11 20,-29 19,-53 -8,-36 -14,-59 -18,-71 -47,-135 -70,-203 -70,-203 0,-63 0,-97 0,-97 8,-1 11,-1 11,-1 5,-12 5,-21 0,-29 -57,0 -85,0 -85,0 -5,5 -7,10 -7,15 1,4 2,8 6,12z"/>
     </clipPath>
     <clipPath id="id1">
      <path d="M13027 16077c0,-56 0,-84 0,-84 21,0 32,0 32,0 0,56 0,84 0,84 -1,11 0,20 3,27 33,98 49,147 49,147 -90,0 -135,0 -135,0 33,-99 49,-149 49,-149 -1,8 0,0 2,-25z"/>
     </clipPath>
 </defs>
 <g id="Capa_x0020_1">
  <metadata id="CorelCorpID_0Corel-Layer"/>
  <g id="_677769800768">
   <path class="fil0" d="M12581 15837c-58,49 -116,184 -173,404 43,-271 111,-429 205,-472 55,-12 91,26 109,116 2,104 -15,185 -51,242 99,81 142,178 127,291 -19,114 -65,165 -139,152 -93,-43 -160,-97 -201,-160 18,8 27,12 27,12 -16,-22 -24,-33 -24,-33 7,-14 9,-20 6,-19 64,87 129,131 195,132 21,0 35,-3 41,-10 19,-12 19,-22 0,-29 -14,1 -20,2 -20,2 54,-37 75,-86 63,-146 -7,-74 -51,-129 -130,-165 64,-96 89,-187 73,-274 -23,-72 -59,-86 -108,-43z"/>
   <path class="fil1" d="M13182 16525c-56,55 -118,88 -185,98 -58,5 -95,-14 -112,-56 -18,-32 -30,-84 -36,-154 -2,-10 -3,-15 -3,-15 -22,-29 -24,-59 -5,-92 19,-11 34,-8 44,12 10,12 11,35 2,68 8,71 17,116 29,137 13,26 46,37 97,32 70,-23 130,-65 182,-126 2,-16 4,-25 4,-25 60,-79 79,-163 59,-252 -21,-65 -41,-109 -60,-132 -2,-12 -3,-17 -3,-17 -67,-75 -123,-114 -168,-119 -71,-20 -113,0 -125,62 -10,50 -15,86 -14,107 8,32 6,55 -7,67 -7,14 -19,17 -34,8 -22,-32 -25,-61 -7,-87 5,-7 8,-10 8,-10 7,-80 21,-138 43,-175 31,-53 93,-61 186,-23 57,27 101,62 132,106 5,5 8,8 8,8 12,3 18,4 18,4 46,58 76,134 89,228 54,5 108,5 163,-2 78,-24 126,-98 145,-220 14,-122 -7,-223 -63,-303 -41,-56 -117,-77 -229,-62 -13,93 -48,149 -105,169 -61,5 -103,-42 -124,-142 -12,-112 7,-191 56,-237 54,-47 99,-36 136,33 17,11 30,49 37,112 128,-15 203,0 224,47 72,67 111,175 114,323 -13,191 -75,308 -186,350 -131,0 -185,0 -162,0 -3,0 -5,0 -5,0 -10,88 -38,164 -84,228l-59 50z"/>
   <ellipse class="fil2" cx="13228" cy="15550" rx="63" ry="113"/>
   <g>
    <g style="clip-path:url(#id0)">
     <image x="12923" y="15964" width="241" height="455" xlink:href="ICONO logo ORIGINAL_Images\ICONO logo ORIGINAL_ImgID1.png"/>
    </g>
    <g style="clip-path:url(#id1)">
     <image x="12976" y="15993" width="135" height="257" xlink:href="ICONO logo ORIGINAL_Images\ICONO logo ORIGINAL_ImgID2.png"/>
    </g>
   </g>
  </g>
 </g>
</svg>
