<?xml version="1.0" encoding="UTF-8"?>
<!DOCTYPE svg PUBLIC "-//W3C//DTD SVG 1.1//EN" "http://www.w3.org/Graphics/SVG/1.1/DTD/svg11.dtd">
<!-- Creator: CorelDRAW X7 -->
<svg xmlns="http://www.w3.org/2000/svg" xml:space="preserve" width="31.3266mm" height="31.3266mm" version="1.1" style="shape-rendering:geometricPrecision; text-rendering:geometricPrecision; image-rendering:optimizeQuality; fill-rule:evenodd; clip-rule:evenodd"
viewBox="0 0 3133 3133"
 xmlns:xlink="http://www.w3.org/1999/xlink">
 <defs>
  <style type="text/css">
   <![CDATA[
    .str0 {stroke:#FF537C;stroke-width:75}
    .str1 {stroke:#E40E70;stroke-width:20}
    .fil0 {fill:none}
    .fil3 {fill:#E40E70}
    .fil1 {fill:#FF537C}
    .fil2 {fill:#E40E70;fill-rule:nonzero}
   ]]>
  </style>
 </defs>
 <g id="Capa_x0020_1">
  <metadata id="CorelCorpID_0Corel-Layer"/>
  <g id="_716051628272">
   <path class="fil0 str0" d="M1051 467c0,0 158,40 215,204"/>
   <path class="fil0 str0" d="M1342 621c0,0 -133,329 266,329"/>
   <path class="fil1" d="M1500 994c10,-52 272,316 -57,658 -329,341 -76,922 -76,974 0,52 -284,-671 13,-987 297,-316 126,-650 120,-645z"/>
   <path class="fil0 str0" d="M1620 1930c0,0 -12,171 133,177"/>
   <path class="fil1" d="M2000 1924c0,0 -133,303 -190,316 -57,13 -69,359 -69,399 0,39 -52,-469 31,-456 84,14 228,-259 228,-259z"/>
   <path class="fil2" d="M1820 1838c18,-34 36,-50 72,-50 41,0 73,30 73,66 0,67 -73,133 -145,200 -73,-67 -146,-133 -146,-200 0,-36 33,-66 73,-66 36,0 54,16 73,50z"/>
   <path class="fil3 str1" d="M1717 1785c0,0 -86,-103 -168,-100 -81,3 0,64 5,64l-50 12c0,0 -76,-111 66,-120 142,-10 193,159 193,159l-46 -15z"/>
   <path class="fil3" d="M1935 1815c0,0 86,-103 167,-100 82,3 0,63 -5,63l51 13c0,0 76,-111 -66,-120 -143,-10 -194,158 -194,158l47 -14z"/>
  </g>
 </g>
</svg>
