<svg xmlns="http://www.w3.org/2000/svg" viewBox="0 0 322.5 384.5"><title>Recurso 8</title><g style="isolation:isolate"><g id="Capa_2" data-name="Capa 2"><g id="Objects"><g style="opacity:0.15;mix-blend-mode:multiply"><path d="M159.8,384.5c-19.9,0-38.4-19.3-52-54.3S87.2,250.8,87.2,202.6s7.3-93.4,20.6-127.5,32.1-54.3,52-54.3,38.4,19.3,52,54.3,20.6,79.4,20.6,127.5S225,296,211.7,330.2,179.7,384.5,159.8,384.5Zm0-357.7c-17,0-33.9,18.4-46.4,50.5s-20.2,78-20.2,125.4,7.2,91.9,20.2,125.4,29.4,50.5,46.4,50.5,33.9-18.4,46.4-50.5,20.2-78,20.2-125.4-7.2-91.9-20.2-125.4S176.8,26.8,159.8,26.8Z"/></g><path d="M159.8,380.9c-19.9,0-38.4-19.3-52-54.3S87.2,247.2,87.2,199s7.3-93.4,20.6-127.5,32.1-54.3,52-54.3,38.4,19.3,52,54.3,20.6,79.4,20.6,127.5-7.3,93.4-20.6,127.5S179.7,380.9,159.8,380.9Zm0-357.7c-17,0-33.9,18.4-46.4,50.5S93.2,151.6,93.2,199s7.2,91.9,20.2,125.4,29.4,50.5,46.4,50.5,33.9-18.4,46.4-50.5,20.2-78,20.2-125.4-7.2-91.9-20.2-125.4S176.8,23.2,159.8,23.2Z" style="fill:#0a3d54"/><g style="opacity:0.15;mix-blend-mode:multiply"><path d="M272.7,310.3c-39.3,0-97.4-21.4-151.8-55.9-31.9-20.2-60.1-43.2-81.5-66.6S5,143.3,1.2,125.3C-1.2,114.1.1,104.7,5,97.3c7.1-10.8,21.6-16.5,41.9-16.5,39.3,0,97.4,21.4,151.8,55.9,31.9,20.2,60.1,43.2,81.5,66.6s34.3,44.6,38.2,62.6c2.4,11.2,1.1,20.6-3.8,28C307.5,304.6,293,310.3,272.7,310.3ZM46.9,84.8C28,84.8,14.7,89.8,8.3,99.5c-4.3,6.5-5.4,14.9-3.2,25,7.7,35.8,55.1,86.7,118,126.6,53.7,34.1,111,55.2,149.6,55.2,18.9,0,32.2-5.1,38.6-14.7,4.3-6.5,5.4-14.9,3.2-25-7.7-35.8-55.1-86.7-118-126.6C142.8,105.9,85.5,84.8,46.9,84.8Z"/></g><path d="M272.7,306.7c-39.3,0-97.4-21.4-151.8-55.9-31.9-20.2-60.1-43.2-81.5-66.6S5,139.7,1.2,121.7C-1.2,110.5.1,101.1,5,93.7c7.1-10.8,21.6-16.5,41.9-16.5,39.3,0,97.4,21.4,151.8,55.9,31.9,20.2,60.1,43.2,81.5,66.6s34.3,44.6,38.2,62.6c2.4,11.2,1.1,20.6-3.8,28C307.5,301,293,306.7,272.7,306.7ZM46.9,81.2C28,81.2,14.7,86.3,8.3,95.9c-4.3,6.5-5.4,14.9-3.2,25,7.7,35.8,55.1,86.7,118,126.6,53.7,34.1,111,55.2,149.6,55.2,18.9,0,32.2-5.1,38.6-14.7,4.3-6.5,5.4-14.9,3.2-25-7.7-35.8-55.1-86.7-118-126.6C142.8,102.3,85.5,81.2,46.9,81.2Z" style="fill:#0a3d54"/><g style="opacity:0.15;mix-blend-mode:multiply"><path d="M46.9,310.3h0c-20.3,0-34.8-5.7-41.9-16.5-4.9-7.4-6.2-16.9-3.8-28,3.9-18,17.1-39.7,38.2-62.6s49.7-46.3,81.5-66.6c54.3-34.5,112.5-55.9,151.8-55.9,20.3,0,34.8,5.7,41.9,16.5,4.9,7.4,6.2,16.9,3.8,28-3.9,18-17.1,39.7-38.2,62.6s-49.7,46.3-81.5,66.6C144.3,288.9,86.2,310.3,46.9,310.3ZM272.7,84.8c-38.6,0-95.9,21.2-149.6,55.2C60.2,179.9,12.8,230.8,5.1,266.6c-2.2,10.1-1.1,18.5,3.2,25,6.4,9.6,19.7,14.7,38.6,14.7h0c38.6,0,95.9-21.2,149.6-55.2,62.9-39.9,110.3-90.8,118-126.6,2.2-10.1,1.1-18.5-3.2-25C304.9,89.8,291.5,84.8,272.7,84.8Z"/></g><path d="M46.9,306.7h0c-20.3,0-34.8-5.7-41.9-16.5-4.9-7.4-6.2-16.9-3.8-28,3.9-18,17.1-39.7,38.2-62.6s49.7-46.3,81.5-66.6c54.3-34.5,112.5-55.9,151.8-55.9,20.3,0,34.8,5.7,41.9,16.5,4.9,7.4,6.2,16.9,3.8,28-3.9,18-17.1,39.7-38.2,62.6s-49.7,46.3-81.5,66.6C144.3,285.3,86.2,306.7,46.9,306.7ZM272.7,81.2c-38.6,0-95.9,21.2-149.6,55.2C60.2,176.3,12.8,227.2,5.1,263.1,2.9,273.1,4,281.5,8.3,288c6.4,9.6,19.7,14.7,38.6,14.7h0c38.6,0,95.9-21.2,149.6-55.2,62.9-39.9,110.3-90.8,118-126.6,2.2-10.1,1.1-18.5-3.2-25C304.9,86.3,291.5,81.2,272.7,81.2Z" style="fill:#0a3d54"/><g style="opacity:0.15;mix-blend-mode:multiply"><ellipse cx="164.5" cy="189.5" rx="29.6" ry="29.1"/></g><ellipse cx="159.8" cy="185.9" rx="29.6" ry="29.1" style="fill:#ff7664"/><g style="opacity:0.15;mix-blend-mode:multiply"><ellipse cx="311.4" cy="143" rx="11.1" ry="10.9"/></g><ellipse cx="306.7" cy="139.4" rx="11.1" ry="10.9" style="fill:#66bee5"/><g style="opacity:0.15;mix-blend-mode:multiply"><ellipse cx="249.7" cy="300.3" rx="10.4" ry="9.8"/></g><ellipse cx="251.7" cy="298.6" rx="10.4" ry="9.8" style="fill:#f0e160"/><g style="opacity:0.15;mix-blend-mode:multiply"><ellipse cx="164.4" cy="21.1" rx="17.8" ry="17.5"/></g><ellipse cx="159.8" cy="17.5" rx="17.8" ry="17.5" style="fill:#49c47b"/></g></g></g></svg>