<svg xmlns="http://www.w3.org/2000/svg" viewBox="0 0 128.4 80.5"><title>Recurso 2</title><g style="isolation:isolate"><g id="Capa_2" data-name="Capa 2"><g id="Objects"><g style="opacity:0.15;mix-blend-mode:multiply"><path d="M88.9,14.4,83.1,8.6a2,2,0,0,0-2.8-.1l-2.5,2.3a25.2,25.2,0,0,0-5-2.2l.2-3.3a1.9,1.9,0,0,0-1.9-2l-8.4-.3a1.9,1.9,0,0,0-2.1,1.8V7.9a25.3,25.3,0,0,0-6.2,2L52.1,7.8a2,2,0,0,0-2.8-.1l-6.1,5.5a1.8,1.8,0,0,0-.1,2.7l1.8,1.8A23.2,23.2,0,0,0,42,23.1H39.8a1.9,1.9,0,0,0-2.1,1.8l-.4,8a1.9,1.9,0,0,0,1.9,2H41A22.8,22.8,0,0,0,43.5,42l-1.1,1a1.8,1.8,0,0,0-.1,2.7l5.8,5.8a2,2,0,0,0,2.8.1l.9-.9a25,25,0,0,0,6.5,2.9v1.2a1.9,1.9,0,0,0,1.9,2l8.4.4a1.9,1.9,0,0,0,2.1-1.8V53.9A24.8,24.8,0,0,0,78,51.1l1.2,1.2a2,2,0,0,0,2.8.1L88,46.8a1.8,1.8,0,0,0,.1-2.7l-1.5-1.6A23.1,23.1,0,0,0,89,36.9h2.5a1.9,1.9,0,0,0,2.1-1.8l.4-8a1.9,1.9,0,0,0-1.9-2H89a22.8,22.8,0,0,0-2.5-5.9l2.4-2.1A1.8,1.8,0,0,0,88.9,14.4ZM72.7,24.1a9.6,9.6,0,0,1-.4,14,10.7,10.7,0,0,1-14.6-.4,9.6,9.6,0,0,1,.4-14A10.7,10.7,0,0,1,72.7,24.1Z" style="fill:#4c210c"/><path d="M54.6,40.6l-5-6.5a2,2,0,0,0-2.8-.4l-2.8,2a24.8,24.8,0,0,0-4.7-2.8l.6-3.3a1.9,1.9,0,0,0-1.6-2.2L30.1,26a2,2,0,0,0-2.3,1.5l-.6,3.1a25.5,25.5,0,0,0-6.4,1.3L19,29.6a2,2,0,0,0-2.8-.4L9.5,33.9A1.8,1.8,0,0,0,9,36.6l1.5,2a23.6,23.6,0,0,0-3.5,5l-2.3-.4a2,2,0,0,0-2.3,1.5L1,52.7a1.9,1.9,0,0,0,1.6,2.2l1.7.3A22.5,22.5,0,0,0,6,62.4l-1.2.9a1.8,1.8,0,0,0-.4,2.6l5,6.5a2,2,0,0,0,2.8.4l1-.7a24.6,24.6,0,0,0,6.1,3.6L19,76.9a1.9,1.9,0,0,0,1.6,2.2l8.3,1.4a2,2,0,0,0,2.3-1.5l.3-1.4a24.9,24.9,0,0,0,7.6-1.9L40,77a2,2,0,0,0,2.8.4l6.8-4.8a1.8,1.8,0,0,0,.4-2.6l-1.3-1.7a23.4,23.4,0,0,0,3.1-5.3l2.5.4a2,2,0,0,0,2.3-1.5l1.4-7.9a1.9,1.9,0,0,0-1.6-2.2l-3-.5a22.6,22.6,0,0,0-1.7-6.1l2.6-1.8A1.8,1.8,0,0,0,54.6,40.6ZM39.6,46.7a12.3,12.3,0,0,1-2.8,17.7,13.6,13.6,0,0,1-18.4-2.7,12.3,12.3,0,0,1,2.8-17.7A13.6,13.6,0,0,1,39.6,46.7Z" style="fill:#4c210c"/><path d="M128.3,60.9l-1.4-4a1.1,1.1,0,0,0-1.3-.6l-1.8.6a12.2,12.2,0,0,0-1.9-2.1l.9-1.6a1,1,0,0,0-.5-1.4l-3.9-1.9a1.1,1.1,0,0,0-1.4.4l-.8,1.5a13.1,13.1,0,0,0-3.5-.3l-.5-1.5a1.1,1.1,0,0,0-1.3-.6l-4.2,1.4a1,1,0,0,0-.6,1.3l.4,1.2a13,13,0,0,0-2.6,2l-1.1-.5a1.1,1.1,0,0,0-1.4.4l-2,3.8a1,1,0,0,0,.5,1.3l.8.4a11.7,11.7,0,0,0-.4,3.9l-.8.2a1,1,0,0,0-.7,1.3l1.4,4a1,1,0,0,0,1.3.6l.6-.2a12.6,12.6,0,0,0,2.5,2.8l-.3.6a1,1,0,0,0,.4,1.4l3.9,2a1.1,1.1,0,0,0,1.4-.4l.4-.7a13.2,13.2,0,0,0,4.1.2l.3.8a1.1,1.1,0,0,0,1.3.6l4.2-1.4a1,1,0,0,0,.6-1.3l-.4-1.1a12.3,12.3,0,0,0,2.5-2.2l1.2.6a1.1,1.1,0,0,0,1.4-.4l2-3.8a1,1,0,0,0-.5-1.4l-1.4-.7a12.1,12.1,0,0,0,.1-3.3l1.6-.5A1,1,0,0,0,128.3,60.9Zm-8.6.8a6.6,6.6,0,0,1-4.4,8.5,7,7,0,0,1-8.8-4.2,6.6,6.6,0,0,1,4.4-8.5A7,7,0,0,1,119.7,61.7Z" style="fill:#4c210c"/></g><path d="M87.9,11.5,82.1,5.6a2,2,0,0,0-2.8-.1L76.8,7.9a25.3,25.3,0,0,0-5-2.2l.2-3.3A1.9,1.9,0,0,0,70,.4L61.6,0a1.9,1.9,0,0,0-2.1,1.8V5a25.3,25.3,0,0,0-6.2,2L51.1,4.8a2,2,0,0,0-2.8-.1l-6.1,5.5a1.8,1.8,0,0,0-.1,2.7l1.8,1.8A23.2,23.2,0,0,0,41,20.2H38.7a1.9,1.9,0,0,0-2.1,1.8l-.4,8a1.9,1.9,0,0,0,1.9,2H40A22.8,22.8,0,0,0,42.5,39l-1.1,1a1.8,1.8,0,0,0-.1,2.7l5.8,5.8a2,2,0,0,0,2.8.1l.9-.9a25,25,0,0,0,6.5,2.9v1.2a1.9,1.9,0,0,0,1.9,2l8.4.4a1.9,1.9,0,0,0,2.1-1.8V50.9a24.8,24.8,0,0,0,7.2-2.8l1.2,1.2a2,2,0,0,0,2.8.1L87,43.9a1.8,1.8,0,0,0,.1-2.7l-1.5-1.5A23,23,0,0,0,87.9,34h2.5a1.9,1.9,0,0,0,2.1-1.8l.4-8a1.9,1.9,0,0,0-1.9-2H88a22.8,22.8,0,0,0-2.5-5.9l2.4-2.2A1.8,1.8,0,0,0,87.9,11.5ZM71.7,21.2a9.6,9.6,0,0,1-.4,14,10.7,10.7,0,0,1-14.6-.4,9.6,9.6,0,0,1,.4-14A10.7,10.7,0,0,1,71.7,21.2Z" style="fill:#e2b04d"/><path d="M53.6,37.6l-5-6.5a2,2,0,0,0-2.8-.4l-2.8,2a24.8,24.8,0,0,0-4.7-2.8l.6-3.3a1.9,1.9,0,0,0-1.6-2.2l-8.3-1.4a2,2,0,0,0-2.3,1.5l-.6,3.1A25.5,25.5,0,0,0,19.8,29L18,26.6a2,2,0,0,0-2.8-.4L8.4,31A1.8,1.8,0,0,0,8,33.6l1.5,2a23.6,23.6,0,0,0-3.5,5l-2.3-.4a2,2,0,0,0-2.3,1.5L0,49.7a1.9,1.9,0,0,0,1.6,2.2l1.7.3a22.5,22.5,0,0,0,1.6,7.3l-1.2.9A1.8,1.8,0,0,0,3.3,63l5,6.5a2,2,0,0,0,2.8.4l1-.7a24.6,24.6,0,0,0,6.1,3.6L17.9,74a1.9,1.9,0,0,0,1.6,2.2l8.3,1.4A2,2,0,0,0,30.1,76l.3-1.4a24.9,24.9,0,0,0,7.6-1.9l1,1.3a2,2,0,0,0,2.8.4l6.8-4.8a1.8,1.8,0,0,0,.4-2.6l-1.3-1.7A23.5,23.5,0,0,0,50.7,60l2.5.4a2,2,0,0,0,2.3-1.5l1.4-7.9a1.9,1.9,0,0,0-1.6-2.2l-3-.5a22.5,22.5,0,0,0-1.7-6.1l2.6-1.8A1.8,1.8,0,0,0,53.6,37.6ZM38.6,43.7a12.3,12.3,0,0,1-2.8,17.7,13.6,13.6,0,0,1-18.4-2.7A12.3,12.3,0,0,1,20.1,41,13.6,13.6,0,0,1,38.6,43.7Z" style="fill:#868686"/><path d="M127.3,58l-1.4-4a1.1,1.1,0,0,0-1.3-.6l-1.7.6a12.2,12.2,0,0,0-1.9-2.1l.9-1.6a1,1,0,0,0-.5-1.4l-3.9-1.9a1.1,1.1,0,0,0-1.4.4l-.8,1.5a13.1,13.1,0,0,0-3.5-.3l-.5-1.5a1.1,1.1,0,0,0-1.3-.6l-4.2,1.4A1,1,0,0,0,105,49l.4,1.2a13,13,0,0,0-2.6,2l-1.1-.5a1.1,1.1,0,0,0-1.4.4l-2,3.8a1,1,0,0,0,.5,1.3l.8.4a11.7,11.7,0,0,0-.4,3.9l-.8.2a1,1,0,0,0-.7,1.3l1.4,4a1.1,1.1,0,0,0,1.3.6l.6-.2a12.6,12.6,0,0,0,2.5,2.8l-.3.6a1,1,0,0,0,.4,1.4l3.9,2a1.1,1.1,0,0,0,1.4-.4l.4-.7a13.2,13.2,0,0,0,4.1.2l.3.8a1.1,1.1,0,0,0,1.3.6l4.2-1.4a1,1,0,0,0,.6-1.3l-.4-1.1a12.4,12.4,0,0,0,2.5-2.2l1.2.6a1.1,1.1,0,0,0,1.4-.4l2-3.8a1,1,0,0,0-.5-1.4l-1.4-.7a12,12,0,0,0,.1-3.3l1.6-.5A1,1,0,0,0,127.3,58Zm-8.6.8a6.6,6.6,0,0,1-4.4,8.5,7,7,0,0,1-8.8-4.2,6.6,6.6,0,0,1,4.4-8.5A7,7,0,0,1,118.7,58.7Z" style="fill:#f0e160"/><path d="M28.2,64.4A13.7,13.7,0,0,1,17,59a12.6,12.6,0,0,1-2.3-9.7,14.7,14.7,0,0,1,6.6-9.5L53.7,21c3.8-2.5,7.6-3.9,11-3.9a10.1,10.1,0,0,1,8.5,4.3,10.1,10.1,0,0,1,2,7.9c-.7,3.7-3.4,7.3-7.7,10.1L38.1,61.3A17.7,17.7,0,0,1,28.2,64.4ZM64.7,19c-3,0-6.4,1.3-10,3.6L22.3,41.4a12.9,12.9,0,0,0-5.8,8.3,10.7,10.7,0,0,0,2,8.2,11.8,11.8,0,0,0,9.8,4.6A15.8,15.8,0,0,0,37,59.8L66.3,37.9c3.9-2.6,6.4-5.8,6.9-8.9a8.2,8.2,0,0,0-1.6-6.4A8.2,8.2,0,0,0,64.7,19Z" style="fill:#0a3d54"/><path d="M112.6,68.7a15.6,15.6,0,0,1-8.6-3L57.8,37c-6-4.6-5.9-11.2-2.7-15.5h.1c1.7-2.4,5.1-3.8,8.9-3.8a13.1,13.1,0,0,1,7.4,2.2l42.5,31.7c5.7,3.9,7.7,9.2,5.3,13.9v.2l-.4.5A7.5,7.5,0,0,1,112.6,68.7ZM56.7,22.3h-.1c-2.6,3.5-3,9,2.2,13L105,64.1a14.1,14.1,0,0,0,7.5,2.7,5.6,5.6,0,0,0,4.6-2l.4-.5c1.9-3.8.2-8.1-4.8-11.5L70.3,21.1A11.2,11.2,0,0,0,64,19.3C61,19.3,58.1,20.5,56.7,22.3Z" style="fill:#0a3d54"/></g></g></g></svg>