<svg xmlns="http://www.w3.org/2000/svg" viewBox="0 0 123 146.9"><title>Recurso 6</title><g id="Capa_2" data-name="Capa 2"><g id="Objects"><g style="opacity:0.1"><path d="M31.9,125.8v7.6a4.6,4.6,0,0,0,4.7,4.5H61.8a4.6,4.6,0,0,0,4.7-4.5v-7.6a4.6,4.6,0,0,0-4.7-4.5H57.6v-4.5a4,4,0,0,0-.1-.5H58a3,3,0,1,0,0-6H50.7v0H40.3a3,3,0,1,0,0,6h.5a4.1,4.1,0,0,0-.1.5v4.5H36.6A4.6,4.6,0,0,0,31.9,125.8Z" style="fill:#70706e"/><path d="M50.7,95.3s-8,11.5,0,11.5h.5C58.3,106.3,50.7,95.3,50.7,95.3Z" style="fill:#70706e"/><path d="M122.9,138.1H100.8V29.2a8.3,8.3,0,0,0,0-15.3V1.8H94.4v12A8.3,8.3,0,0,0,89.5,19H64.1a5,5,0,0,0-3.5-2.4A4.1,4.1,0,0,0,63,12.9a4.3,4.3,0,0,0-4.4-4.2h-18A4.3,4.3,0,0,0,36.2,13a4.1,4.1,0,0,0,2.4,3.7A5,5,0,0,0,35.5,19H27.7v5h7.8a5,5,0,0,0,4.3,2.5h.6V36.8A24.8,24.8,0,0,0,24,59.9c0,13.7,11.6,24.7,25.9,24.6S75.7,73.3,75.6,59.7A24.8,24.8,0,0,0,59.7,36.9V26.5h.1A5,5,0,0,0,64.1,24H89.5a8.3,8.3,0,0,0,4.9,5.2V138.2L2,138.5v8.4l121-.4Z" style="fill:#70706e"/></g><path d="M59.8,119.4H55.7v-4.5a4,4,0,0,0-.1-.5H56a3,3,0,1,0,0-6H38.3a3,3,0,1,0,0,6h.5a4.1,4.1,0,0,0-.1.5v4.5H34.6a4.6,4.6,0,0,0-4.7,4.5v7.6a4.6,4.6,0,0,0,4.7,4.5H59.9a4.6,4.6,0,0,0,4.7-4.5v-7.6a4.6,4.6,0,0,0-4.7-4.5" style="fill:#fff"/><path d="M62.4,124.8v5.8c0,1.9-1.8,3.4-4.1,3.4H36.2c-2.3,0-4.1-1.5-4.1-3.4V125" style="fill:#e2b04d"/><path d="M48.8,128.4s3.9,1,2.9-3.7c-.6-2.7-3-1.4-3-4.9V105" style="fill:none;stroke:#9a9a9a;stroke-miterlimit:10;stroke-width:0.717123px"/><path d="M48.7,93.6s-8,11.5,0,11.5S48.7,93.6,48.7,93.6Z" style="fill:#ff755a"/><path d="M48.7,97.6s-5.2,7.4,0,7.4S48.7,97.6,48.7,97.6Z" style="fill:#f0e160"/><path d="M57.8,35.2v-20A4.2,4.2,0,0,0,61,11.1,4.3,4.3,0,0,0,56.6,7h-18a4.3,4.3,0,0,0-4.4,4.2,4.3,4.3,0,0,0,4.2,4.2V35A24.8,24.8,0,0,0,22.1,58.1c0,13.7,11.6,24.7,25.9,24.6S73.7,71.6,73.7,57.9A24.8,24.8,0,0,0,57.8,35.2" style="fill:#fff"/><path d="M25.7,58.1c0,11.7,10,21.2,22.2,21.1S70.1,69.6,70,57.9Z" style="fill:#ff755a"/><circle cx="46.8" cy="71.5" r="1.7" style="fill:#fff;opacity:0.9"/><circle cx="53.5" cy="62.8" r="2" style="fill:#fff;opacity:0.9"/><circle cx="49.7" cy="66.5" r="1.2" style="fill:#fff;opacity:0.9"/><circle cx="51.5" cy="71.5" r="0.7" style="fill:#fff;opacity:0.9"/><circle cx="49.7" cy="75.5" r="1.2" style="fill:#fff;opacity:0.9"/><circle cx="45.9" cy="62.8" r="0.8" style="fill:#fff;opacity:0.9"/><rect y="136.6" width="121" height="8.4" transform="translate(-0.5 0.2) rotate(-0.2)" style="fill:#575756"/><rect x="25.7" y="17.3" width="67.2" height="5" style="fill:#575756"/><path d="M62.9,19.8a5,5,0,0,1-5,5h-20a5,5,0,0,1-5-5h0a5,5,0,0,1,5-5h20a5,5,0,0,1,5,5Z" style="fill:#585756"/><rect x="92.4" width="6.4" height="140.86" style="fill:#575756"/><circle cx="95.5" cy="19.8" r="8.3" style="fill:#575756"/><circle cx="95.5" cy="19.8" r="5" style="fill:#70706e"/></g></g></svg>