<svg xmlns="http://www.w3.org/2000/svg" viewBox="0 0 172.6 98.7"><title>Recurso 5</title><g id="Capa_2" data-name="Capa 2"><g id="Objects"><path d="M93.7,6.7H72a3.8,3.8,0,0,0-3.8,3.7v1.9A3.8,3.8,0,0,0,72,16.1h.1a10.3,10.3,0,0,0-.1,1.2l.2,60.3a11,11,0,0,0,21.9-.1L94,17.2a10.9,10.9,0,0,0-.1-1.2,3.8,3.8,0,0,0,3.7-3.7V10.4a3.8,3.8,0,0,0-3.9-3.7" style="fill:#fff"/><path d="M93.4,2.5A2.4,2.4,0,0,1,91,4.8H74.7a2.4,2.4,0,0,1-2.4-2.3A2.4,2.4,0,0,1,74.7.2H91a2.4,2.4,0,0,1,2.4,2.3" style="fill:#575756"/><rect x="74.3" y="2.5" width="17.1" height="5.44" transform="translate(0 0.3) rotate(-0.2)" style="fill:#575756"/><path d="M91.9,23.4l.2,54.1a8.9,8.9,0,0,1-17.8.1l-.2-54.1" style="fill:#f0e160"/><ellipse cx="84.7" cy="75.5" rx="2.5" ry="2.4" style="fill:#f9f7ea;opacity:0.8"/><ellipse cx="78.7" cy="66.1" rx="1.8" ry="1.7" style="fill:#f9f7ea;opacity:0.8"/><ellipse cx="85.8" cy="59.2" rx="1.4" ry="1.4" style="fill:#f9f7ea;opacity:0.8"/><ellipse cx="87.2" cy="67.4" rx="1.4" ry="1.4" style="fill:#f9f7ea;opacity:0.8"/><path d="M49.6,6.9H27.9A3.8,3.8,0,0,0,24,10.7v1.9a3.8,3.8,0,0,0,3.9,3.7H28a9.4,9.4,0,0,0-.1,1.2l.2,60.3a10.8,10.8,0,0,0,11,10.5A10.7,10.7,0,0,0,50.1,77.7l-.2-60.3a10.5,10.5,0,0,0-.1-1.2,3.8,3.8,0,0,0,3.7-3.7V10.6a3.8,3.8,0,0,0-3.9-3.7" style="fill:#fff"/><path d="M49.3,2.6A2.4,2.4,0,0,1,46.9,5H30.6a2.4,2.4,0,0,1-2.4-2.3A2.4,2.4,0,0,1,30.6.4H46.8a2.4,2.4,0,0,1,2.4,2.3" style="fill:#575756"/><rect x="30.2" y="2.7" width="17.1" height="5.44" transform="translate(0 0.1) rotate(-0.2)" style="fill:#575756"/><path d="M49.3,2.6A2.4,2.4,0,0,1,46.9,5H30.6a2.4,2.4,0,0,1-2.4-2.3A2.4,2.4,0,0,1,30.6.4H46.8a2.4,2.4,0,0,1,2.4,2.3" style="fill:#575756"/><rect x="30.2" y="2.7" width="17.1" height="5.44" transform="translate(0 0.1) rotate(-0.2)" style="fill:#575756"/><path d="M47.9,36.5,48,77.6a8.9,8.9,0,0,1-17.8.1L30,36.5" style="fill:#49c47b"/><ellipse cx="37.3" cy="70.7" rx="2.5" ry="2.4" style="fill:#f9f7ea;opacity:0.8"/><ellipse cx="39" cy="60.5" rx="1.8" ry="1.7" style="fill:#f9f7ea;opacity:0.8"/><ellipse cx="38.7" cy="79.2" rx="1.4" ry="1.4" style="fill:#f9f7ea;opacity:0.8"/><ellipse cx="44.1" cy="66.1" rx="1.4" ry="1.4" style="fill:#f9f7ea;opacity:0.8"/><path d="M137.8,6.6H116.1a3.8,3.8,0,0,0-3.8,3.7v1.9a3.8,3.8,0,0,0,3.9,3.7h.1a10,10,0,0,0-.1,1.2l.2,60.3a11,11,0,0,0,21.9-.1l-.2-60.3a10.7,10.7,0,0,0-.1-1.2,3.8,3.8,0,0,0,3.7-3.7V10.3a3.8,3.8,0,0,0-3.9-3.7" style="fill:#fff"/><path d="M137.5,2.3a2.4,2.4,0,0,1-2.4,2.3H118.8a2.4,2.4,0,0,1-2.4-2.3A2.4,2.4,0,0,1,118.8.1h16.2a2.4,2.4,0,0,1,2.4,2.3" style="fill:#575756"/><rect x="118.4" y="2.4" width="17.1" height="5.44" transform="translate(0 0.4) rotate(-0.2)" style="fill:#575756"/><path d="M136.2,55.5V77.3a8.9,8.9,0,0,1-17.8.1V55.6" style="fill:#66bee5"/><ellipse cx="124.5" cy="64.4" rx="2.5" ry="2.4" style="fill:#f9f7ea;opacity:0.8"/><ellipse cx="131" cy="70.7" rx="1.4" ry="1.4" style="fill:#f9f7ea;opacity:0.8"/><ellipse cx="124.5" cy="77.9" rx="1.4" ry="1.4" style="fill:#f9f7ea;opacity:0.8"/><rect y="45.3" width="172.6" height="4.56" style="fill:#575756"/><rect x="60.9" y="47.2" width="4.8" height="49.89" style="fill:#575756"/><rect x="105.2" y="47.5" width="4.8" height="49.59" style="fill:#575756"/><path d="M58.2,98.7h0A2.5,2.5,0,0,1,60.3,96H66a2.5,2.5,0,0,1,2.1,2.7h0" style="fill:#3c3c3b"/><path d="M68.6,98.7h-1c0-1.2-.7-2.2-1.7-2.2H60.3c-.9,0-1.7,1-1.7,2.2h-1a2.9,2.9,0,0,1,2.6-3.2H66A2.9,2.9,0,0,1,68.6,98.7Z" style="fill:#575756"/><path d="M102.6,98.7h0a2.5,2.5,0,0,1,2.1-2.7h5.7a2.5,2.5,0,0,1,2.1,2.7h0" style="fill:#3c3c3b"/><path d="M113.1,98.7h-1c0-1.2-.7-2.2-1.7-2.2h-5.7c-.9,0-1.7,1-1.7,2.2h-1a2.9,2.9,0,0,1,2.6-3.2h5.7A2.9,2.9,0,0,1,113.1,98.7Z" style="fill:#575756"/></g></g></svg>