<svg xmlns="http://www.w3.org/2000/svg" viewBox="0 0 102 152.9"><title>Recurso 7</title><g style="isolation:isolate"><g id="Capa_2" data-name="Capa 2"><g id="Objects"><g style="opacity:0.15;mix-blend-mode:multiply"><path d="M92.2,152.9H13.3c-5.7,0-9.8-3.2-9.8-7.5a12.5,12.5,0,0,1,2.1-7L37.8,85V50.4c-2.9-2.9-4-4.8-3.4-6.1s.8-1.3,2.5-1.3h1.8l2.1.2H68.8c1.7,0,2.3.8,2.5,1.3s-.5,3.3-3.4,6.1V85L100,138.4a12.5,12.5,0,0,1,2,7c0,4.3-4.1,7.5-9.8,7.5"/></g><path d="M88.7,150.3H9.8c-5.7,0-9.8-3.2-9.8-7.5a12.5,12.5,0,0,1,2.1-7L34.3,82.4V47.8c-2.9-2.9-4-4.8-3.4-6.1s.8-1.3,2.5-1.3H65.3c1.7,0,2.3.8,2.5,1.3s-.5,3.3-3.4,6.1V82.4l32.1,53.4a12.5,12.5,0,0,1,2,7c0,4.3-4.1,7.5-9.8,7.5" style="fill:#fff"/><path d="M36.9,91.8,8.8,134.9s-2.2,3.9-1.2,6.7,1.7,4.6,10.9,4.7h66s6.1.2,7.2-4.4-.7-6.8-4.3-12.2-23.2-38-23.2-38H36.9" style="fill:#f0e160"/><ellipse cx="43.3" cy="105.8" rx="2.6" ry="2.5" style="fill:#f9f7ea"/><ellipse cx="71.4" cy="136.2" rx="2.6" ry="2.5" style="fill:#f9f7ea"/><ellipse cx="22.9" cy="136.2" rx="3.7" ry="3.5" style="fill:#f9f7ea"/><ellipse cx="40" cy="124.9" rx="2" ry="1.9" style="fill:#f9f7ea"/><ellipse cx="60.3" cy="115.1" rx="5.8" ry="5.6" style="fill:#f9f7ea"/><g style="opacity:0.15;mix-blend-mode:multiply"><ellipse cx="58" cy="28.8" rx="5.3" ry="5"/></g><ellipse cx="54.5" cy="26.2" rx="5.3" ry="5" style="fill:#f0e160"/><g style="opacity:0.15;mix-blend-mode:multiply"><ellipse cx="43.6" cy="13.1" rx="6.9" ry="6.6"/></g><ellipse cx="40" cy="10.5" rx="6.9" ry="6.6" style="fill:#f0e160"/><g style="opacity:0.15;mix-blend-mode:multiply"><ellipse cx="63.3" cy="6.5" rx="4" ry="3.9"/></g><ellipse cx="59.8" cy="3.9" rx="4" ry="3.9" style="fill:#f0e160"/></g></g></g></svg>