<svg xmlns="http://www.w3.org/2000/svg" viewBox="0 0 121.3 115.1"><title>Recurso 3</title><g style="isolation:isolate"><g id="Capa_2" data-name="Capa 2"><g id="Objects"><g style="opacity:0.15;mix-blend-mode:multiply"><path d="M11.6,74.3c-8-3.5-9.5-16.9-1.3-19h0C2.9,52.8,6.2,36.1,13.1,37c-.7-6.8.6-15,11.1-15.9-.3-8.5,10.7-13.6,17.5-8.7a12.9,12.9,0,0,1,2.9-6.8c3.5-3.2,15.4-3.5,15.4,3.2v93.3c-3.1,4.9-3.8,8.8-9.8,11.3s-12.3,2.8-16.7,0c0,0-6.2-6.7-5.7-8.9-1.9,2.1-6.5,1.4-8.3-.4-5.4-4.6-3-12.9-3-12.9s-4.4-2.5-5.4-4.2a8.5,8.5,0,0,1-1.9-6C9.4,78.5,11,76.4,11.6,74.3Z"/></g><path d="M8.1,71.4c-8-3.5-9.5-16.9-1.3-19h0C-.6,49.9,2.7,33.3,9.5,34.1c-.7-6.8.6-15,11.1-15.9C20.4,9.8,31.4,4.7,38.2,9.6a12.9,12.9,0,0,1,2.9-6.8C44.6-.4,56.6-.8,56.6,5.9V99.3c-3.1,4.9-3.8,8.8-9.8,11.3s-12.3,2.8-16.7,0c0,0-6.2-6.7-5.7-8.9-1.9,2.1-6.5,1.4-8.3-.4-5.4-4.6-3-12.9-3-12.9s-4.4-2.5-5.4-4.2a8.5,8.5,0,0,1-1.9-6C5.9,75.7,7.5,73.5,8.1,71.4Z" style="fill:#e2cccf"/><path d="M56.7,100.6a1,1,0,0,1-1-1V6.3a3.8,3.8,0,0,0-2.6-3.6c-3.6-1.6-9.2-.7-11.2,1.1S38.9,11.1,40,14s4.2,6,7.3,6.1a1,1,0,0,1,.9,1,1,1,0,0,1-1,.9c-3.9-.2-7.4-3.1-9-7.4s-.8-9.2,2.4-12.3S49.9-.8,53.9,1a5.7,5.7,0,0,1,3.8,5.4V99.7A1,1,0,0,1,56.7,100.6Z" style="fill:#0a3d54"/><path d="M24.3,52.6a11.4,11.4,0,0,1-3-.4C15.7,50.6,10.5,45,9.1,40.8c-2.3-7.1-1.5-14.8,2-19.2a10.4,10.4,0,0,1,8.6-3.9,11,11,0,0,1,6.1-8.9,12.4,12.4,0,0,1,13,.5,1,1,0,0,1-1.1,1.6,10.4,10.4,0,0,0-10.9-.3,9,9,0,0,0-5.1,8.2,1,1,0,0,1-1.1,1,8.5,8.5,0,0,0-8,3.2C9.6,26.7,8.9,33.7,11,40.2c1,3.2,5.5,8.6,10.8,10.1a8.4,8.4,0,0,0,8.1-1.8,1,1,0,1,1,1.3,1.5A10.4,10.4,0,0,1,24.3,52.6Z" style="fill:#0a3d54"/><path d="M33.9,76.3a18,18,0,0,1-4.1-.5c-2.9-.7-5-2.1-6-4a9.4,9.4,0,0,1-4.5,2.5A19.6,19.6,0,0,1,5.1,71.9C1.5,69.6-.6,64.3.2,59.4a9,9,0,0,1,4.6-6.8c-2.5-2-3.8-5.3-3.6-9.2S3.6,34.8,8,33.6a1,1,0,1,1,.5,1.9c-3.4,1-5.2,4.8-5.4,8.1s.8,6.9,4.2,8.4a1,1,0,0,1-.1,1.8,6.9,6.9,0,0,0-5.1,5.9c-.7,4.1,1.1,8.7,4.1,10.6a17.7,17.7,0,0,0,12.7,2.2,6.6,6.6,0,0,0,4.5-3.2,1,1,0,0,1,1.8.4c.3,2.8,3.3,3.9,5.1,4.3,4.5,1.1,10-.1,11.4-2.3a1,1,0,0,1,1.7,1C41.8,75.1,37.9,76.3,33.9,76.3Z" style="fill:#0a3d54"/><path d="M46.5,76a4.4,4.4,0,0,1-1.7-.3c-2.6-1.1-4.2-4.4-4.8-7.1a1,1,0,1,1,1.9-.5c.5,2.2,1.8,5,3.7,5.7a2.9,2.9,0,0,0,2.7-.4,1,1,0,0,1,1,1.7A5.4,5.4,0,0,1,46.5,76Z" style="fill:#0a3d54"/><path d="M21.1,104.3a8.5,8.5,0,0,1-5.5-1.9c-4.8-4.1-3.9-10.8-3.4-13.1-1.3-.8-4.2-2.6-5.1-4.2a9.4,9.4,0,0,1-2-6.5,23.7,23.7,0,0,1,1-7,1,1,0,0,1,1.9.6A21.8,21.8,0,0,0,7,78.5a7.6,7.6,0,0,0,1.7,5.4h.1c.6,1.1,3.4,2.9,5,3.8a1,1,0,0,1,.5,1.1c0,.1-2.1,7.7,2.7,11.8a6.7,6.7,0,0,0,4.5,1.4,3.5,3.5,0,0,0,2.5-1,1,1,0,0,1,1.5,1.3,5.3,5.3,0,0,1-3.8,1.6Z" style="fill:#0a3d54"/><path d="M37.4,113.7a14.3,14.3,0,0,1-7.7-1.9C19,104.8,24,88.1,28.1,80.2a1,1,0,1,1,1.7.9c-3.8,7.3-8.6,22.9.9,29,3.9,2.5,11,1.7,15.8-.1s5.5-4.1,7.3-7.4c.6-1.1,1.2-2.2,2-3.4a1,1,0,1,1,1.6,1.1c-.7,1.2-1.3,2.3-1.9,3.3-1.8,3.4-3.4,6.3-8.3,8.3A30.1,30.1,0,0,1,37.4,113.7Z" style="fill:#0a3d54"/><path d="M30.5,44.6h-.7a6.9,6.9,0,0,1-6.1-4.1,1,1,0,1,1,1.8-.7,5,5,0,0,0,4.5,2.9A6.1,6.1,0,0,0,35.7,40a1,1,0,0,1,1.7,1A7.9,7.9,0,0,1,30.5,44.6Z" style="fill:#0a3d54"/><path d="M38.8,55.3a10.4,10.4,0,0,1-7.3-2.7c-2.2-2.2-2.9-5.3-2-8.9a1,1,0,0,1,1.9.5c-.8,2.9-.3,5.3,1.4,7a9,9,0,0,0,8.7,1.8c7.1-2.1,14.1-11.7,14.1-19.5a1,1,0,0,1,2,0c0,8.7-7.5,19-15.5,21.4A11.8,11.8,0,0,1,38.8,55.3Z" style="fill:#0a3d54"/><path d="M30.8,59.9l-2-.2a1,1,0,1,1,.4-1.9c3.4.6,9.9-1,11.9-4.5a1,1,0,0,1,1.7,1C40.6,58.1,34.9,59.9,30.8,59.9Z" style="fill:#0a3d54"/><g style="opacity:0.15;mix-blend-mode:multiply"><path d="M114.5,74.3c8-3.5,9.5-16.9,1.3-19h0c7.4-2.5,4.1-19.2-2.7-18.3.7-6.8-.6-15-11.1-15.9.3-8.5-10.7-13.6-17.5-8.7a13,13,0,0,0-2.9-6.8C78,2.4,66.1,2.1,66.1,8.8v93.3c3.2,4.9,3.8,8.8,9.8,11.3s12.3,2.8,16.7,0c0,0,6.2-6.7,5.7-8.9,1.9,2.1,6.5,1.4,8.3-.4,5.4-4.6,3-12.9,3-12.9s4.4-2.5,5.4-4.2a8.5,8.5,0,0,0,1.9-6C116.8,78.5,115.1,76.4,114.5,74.3Z"/></g><path d="M111,71.4c8-3.5,9.5-16.9,1.3-19h0c7.4-2.5,4.1-19.2-2.7-18.3.7-6.8-.6-15-11.1-15.9.3-8.5-10.7-13.6-17.5-8.7A12.9,12.9,0,0,0,78,2.8C74.5-.4,62.6-.8,62.6,5.9V99.3c3.2,4.9,3.8,8.8,9.8,11.3s12.3,2.8,16.7,0c0,0,6.2-6.7,5.7-8.9,1.9,2.1,6.5,1.4,8.3-.4,5.4-4.6,3-12.9,3-12.9s4.4-2.5,5.4-4.2a8.5,8.5,0,0,0,1.9-6C113.3,75.7,111.6,73.5,111,71.4Z" style="fill:#e2cccf"/><path d="M62.5,100.6a1,1,0,0,1-1-1V6.3A5.7,5.7,0,0,1,65.2,1c4-1.8,10.6-1,13.3,1.5s4.1,7.7,2.4,12.3-5.1,7.2-9,7.4a1,1,0,0,1-1-.9,1,1,0,0,1,.9-1c3.1-.1,5.9-2.5,7.3-6.1s1.2-7.2-1.9-10.2S69.6,1.2,66,2.8a3.8,3.8,0,0,0-2.6,3.6V99.7A1,1,0,0,1,62.5,100.6Z" style="fill:#0a3d54"/><path d="M94.9,52.6A10.4,10.4,0,0,1,88,49.9a1,1,0,0,1,1.3-1.5,8.4,8.4,0,0,0,8.1,1.8c5.3-1.5,9.7-6.9,10.8-10.1,2.1-6.5,1.5-13.5-1.7-17.4a8.5,8.5,0,0,0-8-3.2,1,1,0,0,1-1.1-1,9,9,0,0,0-5.1-8.2,10.4,10.4,0,0,0-10.9.3,1,1,0,1,1-1.1-1.6,12.4,12.4,0,0,1,13-.5,11,11,0,0,1,6.1,8.9,10.4,10.4,0,0,1,8.7,3.9c3.5,4.4,4.4,12.1,2,19.2-1.4,4.2-6.6,9.8-12.1,11.3A11.4,11.4,0,0,1,94.9,52.6Z" style="fill:#0a3d54"/><path d="M85.2,76.3c-3.9,0-7.9-1.2-9.4-3.6a1,1,0,1,1,1.7-1c1.4,2.3,6.9,3.4,11.4,2.3,1.8-.4,4.8-1.5,5.1-4.3a1,1,0,0,1,1.8-.4,6.6,6.6,0,0,0,4.5,3.2,17.7,17.7,0,0,0,12.6-2.2c3-2,4.8-6.5,4.1-10.6a6.9,6.9,0,0,0-5.1-5.9,1,1,0,0,1-.1-1.8c3.4-1.5,4.4-5.3,4.2-8.4s-2-7.1-5.4-8.1a1,1,0,1,1,.5-1.9c4.3,1.3,6.6,5.9,6.8,9.8s-1.1,7.2-3.6,9.2a9,9,0,0,1,4.6,6.8c.8,4.9-1.3,10.2-5,12.6a19.6,19.6,0,0,1-14.2,2.4,9.4,9.4,0,0,1-4.5-2.5c-1,1.9-3,3.3-6,4A18,18,0,0,1,85.2,76.3Z" style="fill:#0a3d54"/><path d="M72.6,76a5.4,5.4,0,0,1-2.8-.8,1,1,0,1,1,1-1.7,2.9,2.9,0,0,0,2.7.4c1.9-.8,3.2-3.6,3.7-5.7a1,1,0,1,1,1.9.5c-.7,2.7-2.3,6-4.8,7.1A4.4,4.4,0,0,1,72.6,76Z" style="fill:#0a3d54"/><path d="M98.1,104.3h-.4a5.3,5.3,0,0,1-3.8-1.6,1,1,0,0,1,1.5-1.3,3.5,3.5,0,0,0,2.5,1,6.7,6.7,0,0,0,4.5-1.4c4.8-4.1,2.7-11.8,2.7-11.9a1,1,0,0,1,.5-1.1c1.6-.9,4.4-2.7,5-3.8h.1a7.6,7.6,0,0,0,1.7-5.4,21.9,21.9,0,0,0-.9-6.4,1,1,0,1,1,1.9-.6,23.8,23.8,0,0,1,1,7,9.4,9.4,0,0,1-2,6.5c-.9,1.6-3.7,3.4-5.1,4.2.5,2.2,1.4,9-3.5,13.1A8.5,8.5,0,0,1,98.1,104.3Z" style="fill:#0a3d54"/><path d="M81.7,113.7a30,30,0,0,1-9.9-1.8c-4.9-2-6.5-4.9-8.3-8.3-.6-1.1-1.2-2.2-1.9-3.3a1,1,0,0,1,1.6-1.1c.8,1.2,1.4,2.3,2,3.4,1.8,3.3,3.1,5.7,7.3,7.5s11.8,2.6,15.8.1c9.5-6.2,4.8-21.7.9-29a1,1,0,1,1,1.7-.9c4.1,7.9,9.1,24.6-1.6,31.6A14.3,14.3,0,0,1,81.7,113.7Z" style="fill:#0a3d54"/><path d="M88.7,44.6A7.9,7.9,0,0,1,81.8,41a1,1,0,0,1,1.7-1,6.1,6.1,0,0,0,5.8,2.6,5,5,0,0,0,4.5-2.9,1,1,0,1,1,1.8.7,6.9,6.9,0,0,1-6.1,4.1Z" style="fill:#0a3d54"/><path d="M80.3,55.3a11.8,11.8,0,0,1-3.3-.5c-8-2.3-15.5-12.7-15.5-21.4a1,1,0,0,1,2,0c0,7.8,7,17.4,14.1,19.5a9,9,0,0,0,8.7-1.8c1.7-1.7,2.2-4.1,1.4-7a1,1,0,0,1,1.9-.5c1,3.5.3,6.7-2,8.9A10.4,10.4,0,0,1,80.3,55.3Z" style="fill:#0a3d54"/><path d="M88.4,59.9c-4.1,0-9.8-1.8-11.9-5.6a1,1,0,1,1,1.7-1c2,3.5,8.5,5.1,11.9,4.5a1,1,0,1,1,.4,1.9Z" style="fill:#0a3d54"/></g></g></g></svg>