<svg xmlns="http://www.w3.org/2000/svg" viewBox="0 0 19.45 21.79"><defs><style>.cls-1{fill:#00365c;}</style></defs><title>Recurso 1</title><g id="Capa_2" data-name="Capa 2"><g id="Layer_1" data-name="Layer 1"><path class="cls-1" d="M18.17,18.32c.1.39.15.65.15.65s-.23.38-.54.42l-.58,0A6,6,0,0,0,18.17,18.32Zm-14.34,1c0-.09,0-.18,0-.28s0-.27,0-.41v-.07c0-.13,0-.26,0-.39-.8,0-1.41.21-1.43.51a.32.32,0,0,0,.11.24c0,.26.56.51,1.28.61C3.83,19.51,3.83,19.44,3.82,19.37Zm10.36-1.15c-1,0-6,.14-7.23.14a3.3,3.3,0,0,0-2.56.93C3.74,19.89,2.75,21,2.75,21a1.13,1.13,0,0,0,.33.3l0,0h0s.95-1,1.55-1.55a3.18,3.18,0,0,1,2.44-.87c1.21,0,6-.13,6.88-.13A2.17,2.17,0,0,1,16,20c.2.61.31,1.12.33,1.24l0,.08a1.2,1.2,0,0,0,.3-.32,13.76,13.76,0,0,0-.36-1.37A2.27,2.27,0,0,0,14.18,18.22ZM11,3.4h-.16L12,1.11l1.8.86L12.84,3.9c2.47.9,6.68,5.67,6.58,9.9,0,0,0,0,0,0a6.87,6.87,0,0,1-3,6h0c0-.16-.09-.33-.15-.5a1.4,1.4,0,0,0-.09-.22h0a2.07,2.07,0,0,0-.82-.82h0l-.26-.13h0L14.83,18h0L14.51,18h0l-.3,0c-1,0-6,.14-7.23.14A3.3,3.3,0,0,0,4.38,19l-.18.17h0l-.07.07L4,19.41,4,19.3A1.22,1.22,0,0,1,4,19L4.07,19l0,0,.18-.17a3.22,3.22,0,0,1,1.06-.7,7.13,7.13,0,0,1,.81-.45s5.59.29,7.47-2.55c1.5-2.26-.69-5.45-1.64-6.66a2.76,2.76,0,0,0,1.18-3.31v0a2.62,2.62,0,0,0-.24-.49l.05,0a2.54,2.54,0,0,0-.27-.44l0,.06a2.3,2.3,0,0,0-.82-.65l.92-1.93L12,1.33Zm2.46,5a.44.44,0,1,0-.42.45A.44.44,0,0,0,13.5,8.39ZM14.72,6.7a.44.44,0,1,0-.42.45A.44.44,0,0,0,14.72,6.7ZM13.16,5.08c1.82.53,4.28,3.14,5.53,6.13-1.18-3-3.59-5.66-5.44-6.32ZM10.09,3.27l-.1.2.37-.07Zm-.81,9.9L6.07,11.64,8.26,7.1a2.63,2.63,0,0,0,3.26,1.43Zm-1.65-1L9.39,8.35a1.6,1.6,0,0,1-.92-.72L6.58,11.7ZM6.33,16.56S4.06,17.6,4,18.95a5.76,5.76,0,0,1,2-1.58s5.59.29,7.47-2.55A3,3,0,0,0,14,13.76a2.8,2.8,0,0,1-.15.26C11.93,16.86,6.33,16.56,6.33,16.56ZM8.18,6a2.49,2.49,0,1,1,2.49,2.49A2.49,2.49,0,0,1,8.18,6Zm1.1,1.79L9.15,7.7l-.09.1.13.11Zm1.39.35A2.13,2.13,0,1,0,8.54,6,2.13,2.13,0,0,0,10.67,8.16ZM9.61,8l-.14-.08-.07.12.14.08Zm.36.15-.16-.06,0,.13.16.06Zm.38.09-.16,0,0,.13.16,0Zm.39,0h-.17v.13h.17Zm.41.08,0-.13-.16,0,0,.13Zm.4-.12,0-.13-.16.06,0,.13Zm.37-.19-.07-.12L11.73,8l.07.12Zm.33-.25-.09-.1-.13.11.09.1Zm.29-.31-.1-.09-.11.13.1.09Zm.23-.35-.12-.07-.08.14.12.07ZM13,6.77l-.13,0-.06.16.13,0ZM13,6.36l-.13,0,0,.16.13,0Zm0-.42h-.13v.17h.13ZM13,5.53l-.13,0,0,.16.13,0Zm-.12-.4-.13,0,.06.16.13,0Zm-.31-.31.08.14.12-.07-.08-.14Zm-.24-.31.11.13.1-.09-.11-.13Zm-.29-.27.13.11.09-.1-.13-.11ZM11.73,4l.14.08L11.94,4l-.14-.08Zm-.36-.15.16.06,0-.13-.16-.06ZM11,3.78l.16,0,0-.13-.16,0Zm-.39,0h.17V3.63h-.17Zm-.42-.08,0,.13.16,0,0-.13Zm-.4.12,0,.13L10,3.87l0-.13ZM9.4,4l.07.12L9.61,4l-.07-.12Zm-.33.25.09.1.13-.11-.09-.1Zm-.28.31.1.09L9,4.51l-.1-.09Zm-.23.35L8.67,5l.08-.14-.12-.07Zm-.16.38.13,0,.06-.16-.13,0Zm-.09.41.13,0,0-.16-.13,0Zm0,.42h.13V5.94H8.27Zm.05.41.13,0,0-.16-.13,0Zm.12.4.13,0-.06-.16-.13,0Zm.31.31-.08-.14-.12.07.08.14Zm.14.4L9,7.54l-.11-.13-.1.09ZM6.46,19.51a.57.57,0,1,0,.58.55A.57.57,0,0,0,6.46,19.51Zm7.24,0a.57.57,0,1,0,.58.55A.57.57,0,0,0,13.7,19.51Zm2.09.64a12.23,12.23,0,0,1,.33,1.24,42.06,42.06,0,0,1-7.49.41c-4.88,0-5.36-.41-5.36-.41s.92-1,1.5-1.5A3.09,3.09,0,0,1,7.16,19c1.17,0,5.8-.13,6.68-.13A2.1,2.1,0,0,1,15.8,20.14Zm-8.64-.08a.68.68,0,1,0-.67.7A.68.68,0,0,0,7.16,20.06Zm7.24,0a.68.68,0,1,0-.67.7A.68.68,0,0,0,14.4,20.06ZM14.28,6.35a.36.36,0,1,0,.37.35A.36.36,0,0,0,14.28,6.35ZM13.05,8a.36.36,0,1,0,.37.35A.36.36,0,0,0,13.05,8Zm-2.69,7.4-.61.65.44-.11.17-.18Zm-5.8,2H0v.36H4.23A3.49,3.49,0,0,1,4.57,17.44Zm1.11-.8H5.59c-.72,0-1.3-.19-1.3-.42s.58-.42,1.3-.42,1.3.19,1.3.42a.25.25,0,0,1-.14.19,15.23,15.23,0,0,0,2.79-.29l.82-.86H8.69l-.44.86-1.73-.86H3.09L0,17.27H4.77A6.59,6.59,0,0,1,5.68,16.64Zm.47-3.46L5.74,13l-1,.82-.22-.27.9-.71-.05,0-.93.72.5.64Zm.31.15L5.29,14.72l.48.41,1.28-1.51-.32-.15-1.2,1.42-.16-.13,1.18-1.39Zm2.4,1.14L8,14l-.63,1.29-.44-.24.66-1.25-.13-.06-.68,1.29,1.44.75ZM5.4,12.11l0,0A.4.4,0,0,1,6,11.88l3.23,1.54a.4.4,0,0,1,.19.53l0,0a.4.4,0,0,1-.53.19L5.59,12.64A.4.4,0,0,1,5.4,12.11Zm.06.33c.35-.58,3.23.82,3.23.82a22.66,22.66,0,0,0-2.9-1.35C5.27,11.92,5.47,12.44,5.47,12.44Zm5.2-7.29a.87.87,0,1,0,.87.87A.87.87,0,0,0,10.67,5.15ZM8.66,6a2,2,0,1,1,2,2A2,2,0,0,1,8.66,6ZM11.8,6a1.13,1.13,0,1,0-1.13,1.13A1.13,1.13,0,0,0,11.8,6ZM9.28,7.32A2.38,2.38,0,0,1,9.36,5.2c.63-1,2.27-.87,2.27-.87a2,2,0,0,0-2.41.46A2,2,0,0,0,9.28,7.32Zm4.85-5.37L11.79.83l.4-.83,2.34,1.12Zm0-.95L12.24.11,11.91.8l.48.17.25-.45Z"/></g></g></svg>