<svg xmlns="http://www.w3.org/2000/svg" viewBox="0 0 68.71 42.43"><defs><style>.cls-1{fill:#727270;}.cls-1,.cls-2{fill-rule:evenodd;}.cls-2{fill:#67cdfd;}</style></defs><title>Recurso 2</title><g id="Capa_2" data-name="Capa 2"><g id="_26" data-name="26"><path class="cls-1" d="M39.89,26.93c-1.53,1.34-4.49,4.59-5.35,4.59s-3.44-2.87-5.06-4.3L29.28,27c-2.2-2-4.77-4.21-7.07-6.5h2.68a1.55,1.55,0,0,0,1.43-1.05l1.25-5.16,2.77,10.13a1.56,1.56,0,0,0,1.44,1.05h0a1.56,1.56,0,0,0,1.43-1.05l3.25-10.9,1.34,8.8A1.33,1.33,0,0,0,39,23.49a1.49,1.49,0,0,0,1.53-.86l2.86-6.4.86,3.25a1.43,1.43,0,0,0,1.44,1.05h1.15c-2.3,2.29-4.78,4.49-7,6.4Z"/><path class="cls-2" d="M53.27,11.16c-.38,2-1.82,4.3-3.82,6.6H46.87l-1.73-6.21a1.34,1.34,0,0,0-1.34-1,1.48,1.48,0,0,0-1.43.77l-2.49,5.54L38.45,6.66a1.34,1.34,0,0,0-1.34-1.15,1.48,1.48,0,0,0-1.53,1L31.86,18.81,29,8.29a1.55,1.55,0,0,0-1.44-1.05h0a1.55,1.55,0,0,0-1.44,1.05l-2.39,9.46H19.62c-2.1-2.29-3.54-4.59-3.92-6.6C15.13,8.1,15.61,5.61,17,3.8S20.87,1,24.41.64h.76A10.61,10.61,0,0,1,33,4a2.26,2.26,0,0,0,1.53.67A2.23,2.23,0,0,0,36,4,10.61,10.61,0,0,1,43.81.64h.76C48.11,1,50.5,2.08,51.94,3.8s1.91,4.3,1.34,7.36Z"/><path class="cls-1" d="M68,.16C64.46-1.75,58.72,13.64,58.15,15l-.09.19.19-.09c1.43,0,2.48.38,3,1.15.57,1.24-.1,3.06-1.92,5.26a37.77,37.77,0,0,1-6.88,6l.86-.86a57.59,57.59,0,0,0,4.87-5.26c1.92-2.29,2.49-3.73,1.82-4.69-.38-.76-1.15-.86-2.2-.48C50.69,19,38.93,30.85,34.34,38.78,29.76,30.85,18.1,19,10.93,16.22c-1.05-.38-1.82-.29-2.2.48-.67,1-.1,2.39,1.82,4.69,1.24,1.62,3.06,3.35,4.87,5.26l.86.86a41.46,41.46,0,0,1-6.88-6c-1.81-2.2-2.48-4-1.81-5.26C8,15.46,9,15.08,10.45,15.08l.19.09V15C10,13.64,4.33-1.75.7.16.32.36-.35,1,.22,2.93,1,5.61,5.77,23.58,8,26.26A5.1,5.1,0,0,0,9.4,27.69c5.64,4.4,13.48,7.74,17.3,13.76,3.54,1.63,6,1.15,7.65-1,1.63,2.1,4.11,2.58,7.65,1,3.92-6,11.66-9.37,17.3-13.76a7.3,7.3,0,0,0,1.54-1.43c2.1-2.68,6.88-20.65,7.65-23.33C69,1,68.47.36,68,.16Z"/></g></g></svg>