<svg xmlns="http://www.w3.org/2000/svg" viewBox="0 0 326.3 127.4"><title>Recurso 3</title><g id="Capa_2" data-name="Capa 2"><g id="Capa_1-2" data-name="Capa 1"><path d="M73.3,88.9c-4.6,4.5-13.5,15.5-16.1,15.5S46.9,94.7,42,89.9l-.6-.6c-6.6-6.8-14.3-14.2-21.2-22h8a4.8,4.8,0,0,0,4.3-3.6l3.7-17.5,8.3,34.3a4.8,4.8,0,0,0,4.3,3.6h0a4.8,4.8,0,0,0,4.3-3.6L63,43.6l4,29.8a4.2,4.2,0,0,0,3.7,3.9c2,.3,3.7-1,4.6-2.9l8.6-21.7,2.6,11a4.4,4.4,0,0,0,4.3,3.6h3.4c-6.9,7.8-14.4,15.2-21,21.6Z" style="fill:#5dc4e1;fill-rule:evenodd"/><path d="M113.4,35.6c-1.1,6.8-5.5,14.6-11.5,22.3H94.2l-5.2-21a4.1,4.1,0,0,0-4-3.2c-1.7-.3-3.4,1-4.3,2.6L73.3,54.9,69,20.4a4.2,4.2,0,0,0-4-3.9,4.4,4.4,0,0,0-4.6,3.2L49.2,61.4,40.6,25.9a4.8,4.8,0,0,0-4.3-3.6h0A4.8,4.8,0,0,0,32,25.9l-7.2,32H12.5C6.2,50.1,1.9,42.3.7,35.6-1,25.2.4,16.8,4.7,10.7S16.2,1.3,26.8,0h2.3A30.3,30.3,0,0,1,52.6,11.3a6.5,6.5,0,0,0,4.6,2.3,6.4,6.4,0,0,0,4.3-2.3A30.3,30.3,0,0,1,85,0h2.3C98,1.3,105.1,4.9,109.4,10.7s5.7,14.5,4,24.9Z" style="fill:#eb8fbb;fill-rule:evenodd"/><text transform="translate(66.2 96.3) scale(0.62 1)" style="font-size:82.80655670166016px;fill:#e7217e;font-family:MonotypeCorsiva, Monotype Corsiva">Biodiagnostic</text></g></g></svg>