<svg xmlns="http://www.w3.org/2000/svg" viewBox="0 0 326.29 127.42"><defs><style>.cls-1{fill:#5dc4e1;}.cls-1,.cls-2{fill-rule:evenodd;}.cls-2,.cls-3{fill:#e74792;}.cls-3{font-size:82.81px;font-family:MonotypeCorsiva, Monotype Corsiva;}</style></defs><title>Recurso 1</title><g id="Capa_2" data-name="Capa 2"><g id="Capa_1-2" data-name="Capa 1"><path class="cls-1" d="M73.29,88.89c-4.59,4.53-13.48,15.53-16.07,15.53-2.29,0-10.32-9.7-15.2-14.55l-.57-.64c-6.6-6.8-14.33-14.23-21.23-22h8a4.77,4.77,0,0,0,4.29-3.56l3.74-17.45,8.32,34.27a4.77,4.77,0,0,0,4.31,3.56h0a4.77,4.77,0,0,0,4.29-3.56L63,43.63l4,29.76a4.25,4.25,0,0,0,3.74,3.88c2,.31,3.71-1,4.58-2.92L83.9,52.7l2.59,11a4.4,4.4,0,0,0,4.31,3.56h3.44c-6.9,7.75-14.35,15.19-21,21.65Z"/><path class="cls-2" d="M113.45,35.56C112.3,42.34,108,50.12,102,57.87H94.24l-5.18-21a4.11,4.11,0,0,0-4-3.24c-1.72-.32-3.44,1-4.29,2.59L73.29,54.95,69,20.35a4.2,4.2,0,0,0-4-3.87,4.44,4.44,0,0,0-4.58,3.23L49.19,61.43l-8.6-35.57a4.76,4.76,0,0,0-4.31-3.55h0A4.76,4.76,0,0,0,32,25.86l-7.17,32H12.47C6.16,50.12,1.85,42.34.71,35.56-1,25.21.43,16.81,4.72,10.67,9,4.85,16.2,1.29,26.82,0h2.29A30.25,30.25,0,0,1,52.63,11.31a6.46,6.46,0,0,0,4.59,2.28,6.4,6.4,0,0,0,4.31-2.28A30.26,30.26,0,0,1,85,0h2.29C98,1.29,105.13,4.85,109.44,10.67c4.31,6.15,5.73,14.55,4,24.89Z"/><text class="cls-3" transform="translate(76.29 102.03) scale(0.62 1)">Biodiagnostic</text></g></g></svg>