<svg xmlns="http://www.w3.org/2000/svg" viewBox="0 0 13.39 12.42"><defs><style>.cls-1{fill:#00365c;}</style></defs><title>Recurso 2</title><g id="Capa_2" data-name="Capa 2"><g id="Layer_1" data-name="Layer 1"><path class="cls-1" d="M12.93,5.46a13.51,13.51,0,0,0-2.35-.77c1.16.36,2.4.89,2.4.89s.09-.25.15-.44a1.2,1.2,0,0,1,.26-.39v-.1A1.09,1.09,0,0,0,12.93,5.46Z"/><path class="cls-1" d="M.94,8.11a.31.31,0,0,1,.13-.36.37.37,0,0,1,.23-.09.24.24,0,0,1,.16.06h0l.84,1.09.38.08-.27-.34a.21.21,0,0,1,0-.15.36.36,0,0,1,.16-.24.38.38,0,0,1,.22-.09.21.21,0,0,1,.17.09L3,8.24v0C3,8.1,3,8,3,7.93A11.61,11.61,0,0,1,.46,7.11,1.52,1.52,0,0,1,0,7.93a8.49,8.49,0,0,0,1.24.57L1,8.12Z"/><path class="cls-1" d="M8,7.91l-.08-.07a4.88,4.88,0,0,1-.77.24l.21.16v0a.32.32,0,0,1-.06.37.33.33,0,0,1-.26.15H7l-.72-.54c-.28,0-.56,0-.84,0l.33.25h0a.3.3,0,0,1,0,.37A.35.35,0,0,1,5.45,9H5.37l-.81-.61V8.28s0-.07,0-.1h0s0,0,0,.06c0,.33,0,.63,0,.91a11.66,11.66,0,0,0,2.08-.07A2.33,2.33,0,0,0,8,7.91Z"/><path class="cls-1" d="M5.25,4.61l0,0a4.57,4.57,0,0,1,.79-.27l-.2-.24h0A.31.31,0,0,1,6,3.75a.37.37,0,0,1,.23-.09.24.24,0,0,1,.16.06h0l.43.52a8.18,8.18,0,0,1,1.12,0l-.14-.33a.25.25,0,0,1,0-.19A.35.35,0,0,1,8,3.49a.42.42,0,0,1,.15,0,.25.25,0,0,1,.24.16l.25.61.19,0s0,0,0-.05c0-.34,0-.66,0-.95a11.31,11.31,0,0,0-2.08.1A2.37,2.37,0,0,0,5.25,4.61Z"/><path class="cls-1" d="M13.33,4.49a7.33,7.33,0,0,0-1.22-.6l.21.35v0s0,.19-.19.32a.38.38,0,0,1-.2.06.25.25,0,0,1-.16-.06h0l-.6-1-.33-.08.33.43V4s0,.16-.17.3a.39.39,0,0,1-.23.09.2.2,0,0,1-.1,0h0l-.32-.42c0,.11,0,.21,0,.32s0,.18,0,.27a11.7,11.7,0,0,1,2.53.81A1.09,1.09,0,0,1,13.33,4.49Z"/><path class="cls-1" d="M5.1,5.19l3,2.62a4.07,4.07,0,0,0,.19-.39l-3-2.63A4.26,4.26,0,0,0,5.1,5.19Z"/><path class="cls-1" d="M6,3.84A.19.19,0,0,0,6,4.07l2.46,3c.05-.15.1-.32.14-.49L6.29,3.8S6.2,3.72,6,3.84Z"/><path class="cls-1" d="M8,3.59c-.2.08-.15.22-.15.22l.81,2c0-.29.06-.6.08-.93l-.5-1.22S8.24,3.51,8,3.59Z"/><path class="cls-1" d="M10.73,4.23s.07,0,.21-.06.13-.19.13-.19L10.34,3q0,.33,0,.71Z"/><path class="cls-1" d="M12.08,4.48c.16-.1.14-.2.14-.2l-1.81-3c0,.2,0,.44,0,.74l1.5,2.48S11.93,4.57,12.08,4.48Z"/><path class="cls-1" d="M2.84,8.23s-.06-.1-.23,0-.1.23-.1.23L3,9.11c0-.22,0-.46,0-.71Z"/><path class="cls-1" d="M4.67,8.27s0,0,0,.06l.74.56a.22.22,0,0,0,.22-.1c.11-.14,0-.23,0-.23l-1-.76C4.67,8,4.67,8.11,4.67,8.27Z"/><path class="cls-1" d="M7,8.65s.1,0,.2-.1.06-.24.06-.24L4.78,6.41c0,.15,0,.31-.06.48Z"/><path class="cls-1" d="M1.38,7.81s-.09-.08-.24,0S1,8.06,1,8.06L3,10.57c0-.2,0-.42,0-.67Z"/><path class="cls-1" d="M10.34.64,9.52,0S9.17-.07,9,1.24a18.41,18.41,0,0,0-.07,3c.17,4.49-2.21,4.9-2.21,4.9s3.7-.24,3.5-4.87A16.63,16.63,0,0,1,10.34.64Z"/><path class="cls-1" d="M6.61,3.33s-3.7.24-3.5,4.87A16.63,16.63,0,0,1,3,11.79l.82.64a1.79,1.79,0,0,0,.5-1.15,17.26,17.26,0,0,0,.08-3C4.22,3.74,6.61,3.33,6.61,3.33Zm-3,3.18A12.79,12.79,0,0,0,3.4,9.95a14.33,14.33,0,0,1,0-3.5,3.63,3.63,0,0,1,1.89-2.6A3.67,3.67,0,0,0,3.56,6.5Z"/></g></g></svg>