<svg xmlns="http://www.w3.org/2000/svg" viewBox="0 0 8.21 7.87"><defs><style>.cls-1{fill:#00365c;}</style></defs><title>Recurso 1</title><g id="Capa_2" data-name="Capa 2"><g id="Layer_1" data-name="Layer 1"><path class="cls-1" d="M7.94,6.3C7.6,5.93,6.74,5.07,6.1,4.44l-.6-.6-.11-.12C5.15,3.48,5,3.28,5,3V.56A.28.28,0,0,0,5.12.31C5.12.1,4.87.06,4.79,0A4.41,4.41,0,0,0,4.1,0a4.28,4.28,0,0,0-.69,0C3.34.06,3.1.1,3.1.31a.28.28,0,0,0,.15.25V3c0,.27-.19.46-.43.71l-.11.12-.6.6C1.47,5.07.61,5.93.28,6.3a.93.93,0,0,0-.21,1,.7.7,0,0,0,.65.42,30,30,0,0,0,3.38.15,28.84,28.84,0,0,0,3.4-.15.7.7,0,0,0,.65-.42A.93.93,0,0,0,7.94,6.3ZM3.45.22a4.09,4.09,0,0,1,.65,0,4.24,4.24,0,0,1,.66,0c.08,0,.17,0,.17.09s-.09.1-.09.1l0,0a4.8,4.8,0,0,1-1.38,0l-.06,0s-.09,0-.09-.1S3.37.24,3.45.22ZM8,7.22a.52.52,0,0,1-.49.32h0a28.21,28.21,0,0,1-3.39.15A29.33,29.33,0,0,1,.73,7.54h0a.52.52,0,0,1-.49-.32.74.74,0,0,1,.18-.8c.33-.37,1.23-1.26,1.82-1.85L2.84,4l.11-.11A1.23,1.23,0,0,0,3.43,3V.6A3.46,3.46,0,0,0,4.78.6V3a1.23,1.23,0,0,0,.48.83L5.37,4l.6.61c.59.59,1.49,1.49,1.83,1.85A.74.74,0,0,1,8,7.22Z"/><path class="cls-1" d="M6.25,5a.1.1,0,0,1-.08,0,.1.1,0,0,1-.1-.1.1.1,0,0,1,0-.08l-.3-.29L4,4.62h-.3A12.6,12.6,0,0,1,3.07,6a.1.1,0,0,1,0,.08A9.76,9.76,0,0,1,2.2,7.23c-1,.1-1.65-.09-1.5-.67.48-.45,1.15-1.14,1.73-1.77a.1.1,0,0,1,.06-.06l.13-.14H2.4l-.87.86a.05.05,0,0,1,0,0,.05.05,0,0,1-.05.05.05.05,0,0,1,0,0l-.73.75h0a.05.05,0,1,1-.05.05h0C.24,6.8.35,7.45.87,7.45a32.11,32.11,0,0,0,3.22.13,31.63,31.63,0,0,0,3.26-.13c.53,0,.61-.65.16-1.14C7.28,6.05,6.74,5.51,6.25,5ZM3.07,7.15a.05.05,0,1,1,.05-.05A.05.05,0,0,1,3.07,7.15Zm.42-.56a.05.05,0,1,1,.05-.05A.05.05,0,0,1,3.49,6.59Zm.28-.87a.05.05,0,1,1,0-.11.05.05,0,0,1,0,.11Zm.15,1.22a.05.05,0,1,1,0-.11.05.05,0,0,1,0,.11Zm.13-.4a.05.05,0,1,1,.05-.05A.05.05,0,0,1,4.05,6.53Zm.25-.93a.1.1,0,1,1,.1-.1A.1.1,0,0,1,4.3,5.61Zm.25.72a.15.15,0,1,1,.15-.15A.15.15,0,0,1,4.55,6.32Zm.11-1.48a.05.05,0,1,1,.05-.05A.05.05,0,0,1,4.66,4.84ZM4.92,7A.05.05,0,1,1,5,7,.05.05,0,0,1,4.92,7Zm.13-.77a.05.05,0,1,1,.05-.05A.05.05,0,0,1,5.06,6.28Zm.2-1.35a.15.15,0,1,1,.15-.15A.15.15,0,0,1,5.26,4.93Zm.24.73a.05.05,0,1,1,.05.05A.05.05,0,0,1,5.5,5.66Zm.11,1.09a.05.05,0,0,1,0-.11.05.05,0,1,1,0,.11Zm.45-.2a.1.1,0,1,1,.1-.1A.1.1,0,0,1,6.06,6.55Zm0-.95a.1.1,0,1,1,.1.1A.1.1,0,0,1,6.06,5.61Zm.21,1.57a.05.05,0,1,1,.05-.05A.05.05,0,0,1,6.26,7.17Zm.23-.79a.05.05,0,1,1,.05-.05A.05.05,0,0,1,6.5,6.39Zm.62.47a.05.05,0,0,1,0-.11.05.05,0,1,1,0,.11Z"/><path class="cls-1" d="M3.66,3.46c0-1.08,0-2.67,0-2.67l-.1,0s0,2.49,0,2.69a9.11,9.11,0,0,1-.84,1.06h.13A9.68,9.68,0,0,0,3.66,3.46Z"/></g></g></svg>